HIERARCHY
ROOT Hips
{
	OFFSET -1.775099 105.205612 -1.111724
	CHANNELS 6 Xposition Yposition Zposition Xrotation Yrotation Zrotation
	JOINT Chest
	{
		OFFSET 0.143033 13.537979 1.690254
		CHANNELS 3 Xrotation Yrotation Zrotation
		JOINT Chest2
		{
			OFFSET -0.841057 21.159714 3.259764
			CHANNELS 3 Xrotation Yrotation Zrotation
			JOINT Chest3
			{
				OFFSET -0.621230 14.892471 -0.805285
				CHANNELS 3 Xrotation Yrotation Zrotation
				JOINT Neck
				{
					OFFSET 0.154307 17.170044 1.944633
					CHANNELS 3 Xrotation Yrotation Zrotation
					JOINT Head
					{
						OFFSET -0.334314 10.369904 1.476866
						CHANNELS 3 Xrotation Yrotation Zrotation
						End Site
						{
							OFFSET -0.328768 10.380096 1.404712
						}
					}
				}
				JOINT LeftCollar
				{
					OFFSET 4.374172 12.819092 4.282732
					CHANNELS 3 Xrotation Yrotation Zrotation
					JOINT LeftUpArm
					{
						OFFSET 14.467526 -5.297485 -8.433675
						CHANNELS 3 Xrotation Yrotation Zrotation
						JOINT LeftLowArm
						{
							OFFSET 5.537292 -33.301910 0.221937
							CHANNELS 3 Xrotation Yrotation Zrotation
							JOINT LeftHand
							{
								OFFSET -1.425877 -27.875862 11.038588
								CHANNELS 3 Xrotation Yrotation Zrotation
								End Site
								{
									OFFSET -0.311634 -6.092438 2.412535
								}
							}
						}
					}
				}
				JOINT RightCollar
				{
					OFFSET -4.040908 12.878067 4.431172
					CHANNELS 3 Xrotation Yrotation Zrotation
					JOINT RightUpArm
					{
						OFFSET -14.299240 -6.025635 -8.229208
						CHANNELS 3 Xrotation Yrotation Zrotation
						JOINT RightLowArm
						{
							OFFSET -5.450964 -33.306107 -0.851438
							CHANNELS 3 Xrotation Yrotation Zrotation
							JOINT RightHand
							{
								OFFSET 2.661173 -27.767479 11.083323
								CHANNELS 3 Xrotation Yrotation Zrotation
								End Site
								{
									OFFSET 0.581615 -6.068863 2.422366
								}
							}
						}
					}
				}
			}
		}
	}
	JOINT LeftUpLeg
	{
		OFFSET 10.005549 -0.171822 0.527820
		CHANNELS 3 Xrotation Yrotation Zrotation
		JOINT LeftLowLeg
		{
			OFFSET 4.732321 -46.924496 -4.437066
			CHANNELS 3 Xrotation Yrotation Zrotation
			JOINT LeftFoot
			{
				OFFSET 2.294054 -42.632004 -13.334879
				CHANNELS 3 Xrotation Yrotation Zrotation
				JOINT LeftToe
				{
					OFFSET 0.059477 -16.731436 16.721704
					CHANNELS 3 Xrotation Yrotation Zrotation
					End Site
					{
						OFFSET 0.541171 -2.322977 23.534437
					}
				}
			}
		}
	}
	JOINT RightUpLeg
	{
		OFFSET -10.005555 0.171623 -0.527845
		CHANNELS 3 Xrotation Yrotation Zrotation
		JOINT RightLowLeg
		{
			OFFSET -0.757182 -47.109993 -4.907955
			CHANNELS 3 Xrotation Yrotation Zrotation
			JOINT RightFoot
			{
				OFFSET 3.305256 -42.818218 -12.500244
				CHANNELS 3 Xrotation Yrotation Zrotation
				JOINT RightToe
				{
					OFFSET -3.051862 -17.089970 16.067863
					CHANNELS 3 Xrotation Yrotation Zrotation
					End Site
					{
						OFFSET -7.190549 -3.022931 22.331903
					}
				}
			}
		}
	}
}
MOTION
Frames: 15
Frame Time: 0.033333
-1.775099 105.205605 -1.111724 0.000000 -0.000000 -0.000000 0.000000 0.000000 -0.000000 0.000000 -0.000000 -0.000000 0.000001 0.000000 0.000000 -0.000000 -0.000000 -0.000000 0.000000 -0.000000 -0.000000 0.000000 0.000000 0.000001 0.000000 -0.000002 0.000001 0.000003 -0.000003 0.000002 0.000000 -0.000004 -0.000002 -0.000000 0.000001 -0.000001 -0.000001 0.000000 0.000001 -0.000000 0.000000 0.000001 -0.000005 0.000002 0.000000 0.000000 -0.000000 -0.000000 0.000001 0.000000 -0.000000 0.000000 0.000000 0.000000 0.000000 0.000000 0.000000 -0.000000 0.000000 0.000000 -0.000000 -0.000000 0.000000 -0.000000 0.000002 -0.000000 0.000001 -0.000000 -0.000001 
-1.772218 105.203117 -1.109236 0.154957 0.116612 0.047731 -0.251547 0.002668 -0.047072 0.590783 0.037015 -0.030678 -0.548337 0.026463 0.054951 0.548592 -0.043959 0.037353 -0.000000 -0.000001 0.000000 0.181414 -0.346918 0.090501 0.029217 -0.084353 -0.119156 -0.077653 -0.068818 0.129491 -0.000000 -0.000003 0.000001 0.028077 -0.326672 -0.063476 0.027296 0.149202 0.054038 -0.021774 0.064591 0.004449 -0.000003 0.000000 -0.000000 -0.162348 -0.035636 -0.001805 0.058106 -0.040684 -0.132887 -0.481065 0.057435 0.064945 0.000001 0.000000 -0.000000 -0.343450 0.052254 -0.001868 0.428231 0.097325 -0.035138 -0.185937 -0.137448 -0.115087 0.000001 0.000001 0.000001 
-1.760097 105.196686 -1.108016 0.351845 0.284293 0.091757 -0.281104 -0.015550 0.029746 0.927611 0.013444 0.014403 -0.793317 0.164280 -0.045944 0.536873 -0.073451 0.101827 0.000001 -0.000000 0.000000 0.396957 -0.842173 0.320834 0.076008 -0.244595 -0.255387 -0.440727 -0.297941 0.253653 -0.000000 -0.000006 0.000001 0.132981 -0.466699 -0.214806 -0.150825 0.546339 0.207207 -0.383040 0.289244 -0.283390 -0.000001 0.000000 0.000000 -0.630957 -0.059305 -0.056091 0.347885 -0.118623 -0.118582 -0.432522 -0.068243 0.040317 -0.000000 0.000000 -0.000000 -0.539091 0.087087 -0.090780 0.454744 0.109735 0.020481 -0.381782 -0.247097 -0.252019 -0.000001 -0.000000 0.000000 
-1.751117 105.188873 -1.105979 0.298196 0.233224 0.147820 -0.281849 -0.016080 0.016204 1.179167 0.092349 -0.107703 -0.981509 -0.044717 0.062031 0.472406 0.034050 -0.021770 0.000001 -0.000000 -0.000000 0.343062 -0.445089 0.189778 0.095404 -0.245049 -0.084220 -0.353437 -0.327986 0.220262 -0.000000 -0.000003 -0.000000 0.222735 0.201522 -0.095713 -0.123126 0.517472 0.115397 -0.471334 0.279586 -0.495533 -0.000003 0.000000 -0.000000 -0.715531 -0.045636 -0.153610 0.429799 -0.094829 -0.108648 -0.383028 0.032528 0.074040 0.000001 0.000000 -0.000000 -0.484184 0.085641 -0.159075 0.287028 0.041543 0.017484 -0.344138 -0.226639 -0.274480 -0.000000 -0.000002 0.000001 
-1.737488 105.181725 -1.098560 0.386534 0.028045 0.191310 -0.601096 -0.016692 -0.010528 1.356308 0.129106 -0.130394 -0.986230 0.056343 0.081177 0.307220 0.153821 -0.113427 0.000000 -0.000000 -0.000000 0.403062 -0.284252 0.400969 0.178512 -0.415051 -0.193425 -0.154215 -0.602610 0.261756 -0.000000 0.000002 -0.000001 0.387065 0.476453 -0.163913 -0.308039 0.844396 0.247331 -0.338852 0.488346 -0.831328 -0.000003 0.000001 0.000001 -0.729898 -0.030141 -0.249085 0.507648 0.002273 -0.107869 -0.396762 0.152808 0.139916 0.000000 0.000000 0.000000 -0.450368 0.095764 -0.272536 0.138380 -0.055256 -0.050391 -0.204037 -0.114651 -0.227107 -0.000001 -0.000002 0.000001 
-1.722844 105.175163 -1.097867 0.446670 -0.136246 0.213396 -0.548024 -0.012006 -0.005485 1.239446 0.217737 -0.264408 -0.918661 0.376761 0.194876 -0.018475 0.031350 0.057440 0.000000 -0.000000 -0.000000 0.348544 -0.512798 0.313678 0.062137 -0.308669 -0.075244 0.135556 -0.208170 0.264302 -0.000000 -0.000007 -0.000001 0.231914 -0.016673 -0.187356 -0.015867 0.488931 0.162022 -0.008665 0.240246 -0.383545 -0.000003 0.000002 -0.000000 -1.136881 -0.050422 -0.284568 1.044356 -0.020775 -0.173470 -1.112271 -0.023145 0.175680 -0.000000 0.000000 0.000000 -0.804600 0.105320 -0.316491 0.535315 0.022090 -0.117652 -0.150195 0.026754 -0.194838 0.000001 -0.000002 0.000000 
-1.707585 105.165169 -1.096764 0.600322 -0.209409 0.221505 -0.535516 -0.013031 0.000692 0.865190 0.229589 -0.298050 -0.746767 0.533813 0.234903 0.374161 -0.025885 0.097561 0.000000 -0.000001 0.000000 0.419537 -0.887605 0.421995 0.054013 -0.400821 -0.170022 0.398173 -0.305904 0.460531 0.000000 -0.000003 -0.000000 0.212688 -0.197564 -0.399638 0.140595 0.431914 0.286023 0.038143 0.375045 -0.304389 -0.000005 0.000000 0.000001 -1.043797 -0.025837 -0.300678 0.449672 0.013801 -0.186115 -0.387954 0.225649 0.171764 0.000000 0.000000 0.000000 -0.695370 0.088151 -0.319922 0.214769 -0.005499 -0.223073 0.063531 0.340273 -0.082359 0.000001 -0.000002 0.000001 
-1.690665 105.158554 -1.105627 0.541056 -0.143663 0.246515 -0.353966 -0.014609 -0.000135 0.587764 0.180047 -0.224062 -0.775978 0.271287 0.119694 0.014363 0.050822 0.015388 0.000000 -0.000000 -0.000000 0.328382 -0.747771 0.321299 0.007530 -0.255218 -0.094324 0.493092 -0.022850 0.409977 -0.000000 -0.000005 0.000001 0.128248 -0.010294 -0.378719 0.122704 0.257217 0.174885 0.536874 0.067072 0.002495 -0.000005 0.000002 0.000001 -1.013091 -0.050739 -0.331898 0.392677 0.024720 -0.233959 -0.573222 0.338187 0.242437 0.000001 0.000000 -0.000000 -0.580866 0.101256 -0.418403 0.182042 -0.057151 -0.138573 -0.271507 0.627527 -0.153358 -0.000000 0.000001 0.000001 
-1.675170 105.151131 -1.109423 0.769242 -0.166902 0.220837 -0.508697 -0.007927 -0.019840 0.704034 0.178258 -0.207378 -0.832768 0.197125 0.084624 -0.553621 0.175267 0.069788 -0.000000 -0.000001 0.000000 0.236526 -0.244744 0.383140 0.077028 -0.267455 -0.149273 0.533500 -0.025947 0.292801 -0.000000 -0.000002 0.000002 0.132601 -0.078582 -0.518423 -0.369598 0.643662 0.263326 0.938317 0.018062 0.136732 -0.000001 0.000002 0.000000 -0.981379 -0.065587 -0.281414 0.259843 -0.008773 -0.282019 -0.341793 0.329827 0.191430 0.000001 -0.000000 -0.000000 -0.667935 0.106495 -0.351376 -0.205661 0.006829 -0.209188 0.055097 0.447598 0.013076 0.000001 -0.000004 -0.000001 
-1.662964 105.144058 -1.109447 1.259979 0.048911 0.185607 -1.075539 -0.008378 0.038222 0.377478 0.160024 -0.164360 -0.330038 -0.033196 -0.022705 -0.805386 0.171013 0.084696 -0.000000 0.000000 0.000000 0.283495 -0.196402 0.446989 -0.128472 -0.567608 -0.148277 0.552040 -0.146678 0.254485 0.000000 -0.000005 0.000001 0.207406 0.075328 -0.550575 -0.360116 0.785186 0.315711 0.870996 0.103995 0.042943 -0.000003 0.000002 0.000000 -1.494288 -0.164205 -0.251786 0.193942 -0.103999 -0.255623 -0.365871 0.324142 0.171287 0.000001 0.000000 0.000000 -0.954572 0.168004 -0.256187 -0.442254 0.057888 -0.218796 0.277397 0.180642 0.098770 -0.000000 0.000001 -0.000001 
-1.649542 105.137611 -1.109471 1.335647 -0.090332 0.191454 -1.183947 0.017046 -0.114443 0.722848 0.136333 -0.088792 -0.671467 0.187802 0.026099 -0.634366 0.108450 0.200322 0.000000 -0.000001 -0.000000 0.384217 -0.442654 0.559024 -0.469366 -0.852742 -0.397251 0.623096 -0.100762 0.580534 -0.000000 -0.000007 -0.000001 0.175580 -0.439200 -0.739876 -0.575968 1.010214 0.479436 1.259059 0.089370 0.148767 -0.000005 0.000000 0.000001 -1.682493 -0.170888 -0.286095 0.296818 -0.079718 -0.260544 -0.255002 0.433459 0.218498 -0.000000 0.000000 -0.000000 -1.252896 0.166284 -0.231245 -0.038114 0.064146 -0.294497 -0.027434 0.506276 0.012050 0.000000 -0.000000 -0.000001 
-1.632201 105.132668 -1.107421 1.372273 0.098317 0.064772 -1.123390 -0.016507 0.067078 0.361677 0.098494 -0.041982 -0.415749 0.002973 -0.047346 -0.402908 0.189605 0.152326 0.000000 -0.000000 0.000000 0.499841 -0.748951 0.433804 -0.469232 -0.888417 -0.338920 0.482005 -0.014649 0.728159 0.000001 -0.000003 -0.000000 0.254327 -0.081064 -0.621479 -0.514991 1.054964 0.330612 0.929255 -0.026415 0.046751 -0.000003 0.000004 -0.000000 -1.732952 -0.200485 -0.149312 0.350529 -0.174201 -0.269339 -0.166672 0.384004 0.179021 0.000001 0.000000 -0.000000 -1.184976 0.174681 -0.130630 -0.121479 0.099736 -0.199510 0.056611 0.165455 0.004630 0.000001 -0.000000 -0.000001 
-1.615526 105.127495 -1.107465 1.371360 0.292091 0.154390 -0.732555 -0.010225 -0.047326 0.099087 0.059250 -0.003829 -0.282638 -0.084123 -0.066591 -0.477183 0.124097 0.126261 -0.000000 -0.000000 -0.000000 0.533804 -0.961595 0.652154 -0.538358 -0.997327 -0.607757 0.447187 -0.204479 0.927211 0.000001 -0.000001 -0.000001 0.313168 0.142241 -0.822847 -0.566274 1.129323 0.437557 0.874034 0.230713 -0.045137 -0.000003 0.000000 0.000001 -1.601441 -0.151925 -0.190762 -0.121112 -0.059586 -0.279414 -0.041762 0.401663 0.166491 0.000001 0.000000 -0.000000 -1.223165 0.166034 -0.231406 -0.268643 0.014248 -0.217932 0.159940 -0.147282 -0.025887 0.000000 -0.000000 0.000000 
-1.601406 105.124443 -1.105852 1.102901 -0.007407 0.181603 -0.426564 -0.004087 -0.104711 -0.020935 0.120476 -0.118714 -0.282075 0.268242 0.105467 -0.523995 0.033320 0.133961 -0.000000 -0.000001 0.000000 0.458921 -0.976143 0.830181 -0.467199 -0.827921 -0.761603 0.549379 -0.157452 0.817516 -0.000001 -0.000007 0.000000 0.217855 -0.038624 -0.935668 -0.405723 0.892258 0.451030 0.873001 0.270503 0.219438 -0.000001 0.000000 0.000001 -1.222036 -0.092233 -0.225931 -0.044163 0.016775 -0.276190 -0.058708 0.364441 0.185020 -0.000000 -0.000000 0.000000 -1.077329 0.117147 -0.316302 -0.027031 -0.032713 -0.243703 0.272435 0.439216 0.061929 0.000001 -0.000002 0.000000 
-1.588487 105.125961 -1.100931 0.993842 0.246480 0.134529 -0.521459 -0.027981 -0.020539 1.142908 0.061467 -0.016705 -1.216131 -0.031642 -0.038435 -0.398985 0.112189 0.086051 -0.000000 -0.000000 -0.000000 0.523712 -0.822282 0.788836 -0.249268 -0.766608 -0.705764 0.159818 -0.345803 0.802704 -0.000002 -0.000007 -0.000000 0.292979 -0.080307 -0.932486 -0.511796 1.090520 0.355816 0.832698 0.464510 0.370494 -0.000003 0.000002 0.000000 -1.161946 -0.069918 -0.177885 0.055529 0.007904 -0.190940 0.125541 -0.184686 0.028938 0.000001 -0.000000 0.000000 -0.939965 0.081563 -0.239511 -0.065448 -0.089287 -0.277460 0.304423 0.520752 0.017175 0.000001 -0.000002 -0.000001 
